<svg id="Capa_1" data-name="Capa 1" xmlns="http://www.w3.org/2000/svg" viewBox="0 0 289.14 46.6"><defs><style>.cls-1{fill:#2f4050;}.cls-2{fill:#ff6c0e;}.cls-3{fill:#fff;}.cls-4{fill:#587b98;}</style></defs><title>webmail-300x57_v02</title><path class="cls-1" d="M20.2,37.77V22c0-1.3.4-1.6,1.4-1.6h2.3c1.1,0,1.3.4,1.3,1.6v15.9c0,5.9,3,8.9,8.6,8.9,3.6,0,4.6-1.2,4.6-1.2V21.67c0-.73.4-1.3,1-1.3h3c.69,0,1.13.58,1.1,1.4v25.6c0,.6-.3.9-1,1.4a18.69,18.69,0,0,1-8.7,2.5,15.44,15.44,0,0,1-10.49-3.7l0,0A11.84,11.84,0,0,1,15,51.27c-8.9,0-13.7-4.7-13.7-13.3V22c0-1.3.6-1.4,1.4-1.4H5c.9,0,1.4.2,1.4,1.3V38c0,5.9,3,8.9,8.6,8.9,4.7,0,6.2-2.6,6.2-2.6A24.42,24.42,0,0,1,20.2,37.77Z" transform="translate(-1.3 -4.75)"/><path class="cls-1" d="M68.3,38.47H55.1c-.6,0-.9.1-.7,1A8.66,8.66,0,0,0,57,44.89c1.3,1,3.72,1.68,6.72,1.68a72.56,72.56,0,0,0,9.25-1c.3,0,1-.13,1.25,1.17a11.14,11.14,0,0,1,.2,1.7c.2,1.2-.37,1.43-.67,1.53a33.65,33.65,0,0,1-10.56,1.32c-6-.27-8.37-1.55-10.47-3.85s-4.2-5.7-4.2-11.4,1.7-9.9,3.8-12.2S57.6,20,62.5,20c4.5,0,7,.8,9,2.4a9.1,9.1,0,0,1,3.8,7.4C75.4,34.77,72.7,38.47,68.3,38.47ZM55.1,34H66.8c1.9,0,3.4-1.5,3.4-4.1a4.51,4.51,0,0,0-2-3.7,8.88,8.88,0,0,0-5.2-1.4A9.51,9.51,0,0,0,56.5,27c-1.3,1.3-1.9,3.1-2.1,6,0,.57,0,1,.7,1Z" transform="translate(-1.3 -4.75)"/><path class="cls-1" d="M80.2,11v-.9c.1-.8.3-1.1,1.1-1.2h2.6c.9,0,1.2.3,1.2,1.2v8.78c0,1.6.3,1.9,1.9,1.8h.2a39.15,39.15,0,0,1,8.4.3c5.2,1.1,8.6,4.1,10.1,9.2a22,22,0,0,1,.3,10.2c-1.3,5.9-4.9,9.4-10.9,10.4a32.68,32.68,0,0,1-13.9-.9c-1-.3-1.1-.5-1.1-1.7L80.2,11Zm4.9,33.48c0,1.4.2,1.7,1.6,2a21.62,21.62,0,0,0,6.7.4,8,8,0,0,0,6.6-4.7,13.3,13.3,0,0,0,1.4-7.6,15.53,15.53,0,0,0-.8-3.6c-1.3-3.9-4.21-5.9-8.31-6a36.73,36.73,0,0,0-5.79.4c-1.1.1-1.4.6-1.4,1.7v17.4Z" transform="translate(-1.3 -4.75)"/><path class="cls-1" d="M136.1,33.67v15.9c0,1.3-.4,1.6-1.4,1.6h-2.3c-1.1,0-1.3-.4-1.3-1.6V33.67c0-5.9-3-8.9-8.6-8.9A18.24,18.24,0,0,0,116,26V50a1.2,1.2,0,0,1-1,1.3h-3a1.24,1.24,0,0,1-1.1-1.4V23.67a1.5,1.5,0,0,1,1-1.4,31.64,31.64,0,0,1,10.6-2c6.8,0,10.4,3.6,10.4,3.6h.3a14.39,14.39,0,0,1,9.5-3.6c8.9,0,13.6,4.7,13.6,13.3v16c0,1.3-.6,1.4-1.4,1.4h-2.3c-.9,0-1.4-.2-1.4-1.3v-16c0-5.9-3-8.9-8.6-8.9a10.27,10.27,0,0,0-7.4,3A19.64,19.64,0,0,1,136.1,33.67Z" transform="translate(-1.3 -4.75)"/><path class="cls-1" d="M181.62,30.31c.06-2.56-.62-4.34-2.92-5.54a11.47,11.47,0,0,0-4.43-1.06c-2.91-.3-8.46,1.1-8.46,1.1-1.22.29-1.59.25-1.79-.54l-.77-2.57c-.12-.57-.1-.68.74-.88a46.37,46.37,0,0,1,5.37-1.07,33.07,33.07,0,0,1,6.26-.25,14.68,14.68,0,0,1,5.16,1.32,9.52,9.52,0,0,1,6,9.17V48.43a1.44,1.44,0,0,1-1.1,1.44,32.46,32.46,0,0,1-15.7.7,13.69,13.69,0,0,1-5.8-2.5,10,10,0,0,1-2.6-2.8,7.66,7.66,0,0,1,.6-9.3,12.29,12.29,0,0,1,5.58-4,21,21,0,0,1,7-1.11c1.6,0,5.08.2,6.38.33C181.57,31.24,181.62,31.08,181.62,30.31ZM182,41v-4.1a1.38,1.38,0,0,0-1-1.3,6.37,6.37,0,0,0-.7-.2,24.77,24.77,0,0,0-9-.2,8.57,8.57,0,0,0-4.6,2.4,4.86,4.86,0,0,0-.1,6.8l.1.1a9.29,9.29,0,0,0,4.1,2.3,23.17,23.17,0,0,0,8.3.2,11.63,11.63,0,0,0,1.8-.4c.68-.28,1.09-.53,1.1-1.31Z" transform="translate(-1.3 -4.75)"/><path class="cls-1" d="M197.23,17.07a.69.69,0,0,1-.7.7h-3.68a.68.68,0,0,1-.7-.7v-3.6a.68.68,0,0,1,.7-.7h3.68a.69.69,0,0,1,.7.7h0Z" transform="translate(-1.3 -4.75)"/><path class="cls-1" d="M197.23,36.55V50c0,.83-.33,1.22-1.06,1.22h-2.92a1,1,0,0,1-1.07-1.1V23.58c0-1.16.17-1.53,1.36-1.53h2.39c1,0,1.3.35,1.3,1.3v13.2Z" transform="translate(-1.3 -4.75)"/><path class="cls-1" d="M208.4,9.17h-3.3c-.3,0-.8,0-.8.6v33.7c0,3.25.69,4.62,2.06,6a6.93,6.93,0,0,0,5.24,1.72c1.53,0,5.16-.48,5.16-.48.54-.08.54-.28.5-.73l-.41-2.76a.5.5,0,0,0-.64-.48l-2.92.31c-2.12.17-2.61,0-3.31-.66-.9-.9-.88-1.86-.88-3.5V9.77C209.1,9.19,208.61,9.17,208.4,9.17Z" transform="translate(-1.3 -4.75)"/><path class="cls-2" d="M279.64,4.75a10.64,10.64,0,0,0-8.9,4.8,7.57,7.57,0,0,0-.9,1.8,10.57,10.57,0,0,0-.8,4,10.07,10.07,0,0,0,1.7,5.7,7.55,7.55,0,0,0,1.1,1.4,10.62,10.62,0,0,0,7.9,3.5,12.25,12.25,0,0,0,1.9-.2,12.09,12.09,0,0,0,1.8-.5,10.63,10.63,0,0,0,7-10A10.89,10.89,0,0,0,279.64,4.75Z" transform="translate(-1.3 -4.75)"/><path class="cls-3" d="M285.67,17.78l-4.56-7.91a1.59,1.59,0,0,0-2.74,0l-4.57,7.91a1.58,1.58,0,0,0,1.37,2.37h9.13A1.58,1.58,0,0,0,285.67,17.78Zm-2.61,1.06h-6.65a1,1,0,0,1-.86-1.49l3.33-5.76a1,1,0,0,1,1.72,0l3.32,5.76A1,1,0,0,1,283.06,18.84Z" transform="translate(-1.3 -4.75)"/><path class="cls-4" d="M279.74,28.53V47a2.28,2.28,0,0,1-2.28,2.28H227.74A2.29,2.29,0,0,1,225.46,47V13.29A2.29,2.29,0,0,1,227.74,11h39.57a13.19,13.19,0,0,1,.8-1.86H227.74a4.15,4.15,0,0,0-4.14,4.14V47a4.15,4.15,0,0,0,4.14,4.14h49.72A4.15,4.15,0,0,0,281.6,47V28.38A13,13,0,0,1,279.74,28.53Z" transform="translate(-1.3 -4.75)"/><path class="cls-4" d="M262.18,30.38l7-7.21a12.52,12.52,0,0,1-1-1.61l-9.61,9.94a8.17,8.17,0,0,1-11.82,0L245,29.73h0L230,14.25a.93.93,0,0,0-1.31,0,.94.94,0,0,0,0,1.32L243,30.38,228.69,44.71A.93.93,0,1,0,230,46l14.31-14.31,1,1.08a10,10,0,0,0,14.5,0l1-1.08L275.2,46a.93.93,0,0,0,.66.27.93.93,0,0,0,.66-1.59Z" transform="translate(-1.3 -4.75)"/></svg>