<?xml version="1.0" encoding="UTF-8"?>
<svg xmlns="http://www.w3.org/2000/svg" viewBox="0 0 3650.36 3649.37">
  <defs>
    <style>
      .cls-1 {
        fill: #5d4897;
      }

      .cls-2 {
        fill: #8072b3;
      }

      .cls-3 {
        fill: #fed770;
      }
    </style>
  </defs>
  <g id="Code">
    <g id="Code-2" data-name="Code">
      <path class="cls-1" d="M1730.27,3649.37l-552.67-199.08v-179.59l552.67-200.47v180.98l-331.6,108.59,331.6,108.59v180.98Z"/>
      <path class="cls-1" d="M1923.69,3649.37v-180.98l331.6-108.59-331.6-108.59v-180.98l552.67,200.47v179.59l-552.67,199.08Z"/>
    </g>
  </g>
  <g id="Head">
    <path id="Contorn" class="cls-2" d="M1791.56,1.8c-69.18,10.08-145.35,52.56-184.48,102.95-12.58,15.84-32.84,51.12-44.72,77.75-20.27,43.2-22.36,54.71-21.66,113.03,0,49.68,4.19,74.87,16.07,106.55,20.96,54.71,81.06,121.67,134.87,149.75l40.53,20.88v215.98h-466.1c-503.13,0-493.35-.72-588.39,38.88-130.68,54.71-245.98,189.34-284.41,331.89-6.29,24.48-12.58,84.95-14.67,138.23l-4.19,94.31-106.22,2.88c-102.02,2.16-107.61,2.88-146.75,23.76-51.71,27.36-96.43,82.07-111.81,136.07C-.15,1587.81-.85,1638.21.55,1891.62l2.1,298.05,21.66,43.2c26.55,52.56,78.96,98.63,129.98,114.47,24.46,7.2,65.69,10.8,129.28,10.8h92.94v78.47c0,182.86,52.41,311.73,172.6,425.48,51.71,48.96,156.53,105.83,225.71,123.83,31.45,7.2,227.81,9.36,1051.69,9.36,1127.16,0,1041.91,3.6,1151.62-48.24,127.88-60.47,233.4-179.98,275.33-311.01,15.37-49.68,18.87-74.15,21.66-167.02l2.8-109.43,106.22-2.88c92.94-2.16,109.01-5.04,135.57-19.44,46.12-24.48,89.45-69.83,111.11-115.19l19.57-40.32v-619.14l-16.77-34.56c-21.66-45.36-66.39-91.43-109.01-113.03-31.45-16.56-45.42-18-140.46-20.16l-106.22-2.88-3.49-101.51c-3.49-113.75-14.67-159.83-58.7-242.62-37.04-69.83-130.68-161.27-202.65-200.14-112.51-59.75-102.72-59.03-628.92-59.03h-463.3v-213.82l29.35-13.68c166.31-77.03,218.02-295.89,106.22-447.8-26.55-36-81.76-77.75-122.99-93.59-39.13-15.12-106.22-23.76-141.86-18ZM1871.93,204.1c71.98,36.72,75.47,144.71,5.59,188.62-44.72,28.08-105.52,11.52-136.96-36-13.98-20.88-16.07-32.4-13.98-66.23,5.59-79.19,76.87-121.67,145.35-86.39ZM2844.65,983.79c94.34,20.16,170.51,81.35,213.13,170.62l26.55,54.71,2.1,655.14c2.1,734.33,4.19,706.26-46.82,787.61-50.31,79.19-126.48,130.31-217.33,144.71-30.05,5.04-375.25,7.92-1002.77,7.92-1039.11,0-1009.06.72-1086.63-39.6-52.41-27.36-108.31-87.11-134.17-144.71-18.87-41.04-22.36-59.75-27.25-131.75-6.99-109.43-6.29-1177.81.7-1241.17,14.67-125.99,105.52-230.38,227.11-261.34,47.52-12.24,1989.47-14.4,2045.38-2.16Z"/>
    <g id="Eyes">
      <path id="Eye2" class="cls-1" d="M1137.12,1337.52c-51.01,10.08-114.6,45.36-152.34,84.23-148.14,152.63-104.12,408.2,85.25,499.63,145.35,69.83,328.43,5.76,397.62-138.95,109.71-231.1-85.95-494.59-330.53-444.92Z"/>
      <path id="Eye1" class="cls-1" d="M2396.35,1337.52c-71.98,14.4-146.75,64.07-186.58,123.83-78.27,117.35-68.48,284.37,21.66,387.32,144.65,164.86,403.21,124.55,498.94-76.31,22.36-48.24,23.76-54,23.76-129.59s-1.4-82.07-22.36-128.15c-61.49-133.91-197.06-205.9-335.42-177.1Z"/>
    </g>
    <path id="Mouth" class="cls-3" d="M1103.57,2241.04c-64.99,33.12-64.29,128.87.7,161.27,29.35,14.4,38.43,14.4,715.57,14.4,742.12,0,712.77,1.44,748.41-38.16,23.06-25.92,26.55-73.43,7.69-104.39-27.95-46.8,7.69-44.64-756.1-44.64-617.74,0-696.7,1.44-716.27,11.52Z"/>
  </g>
</svg>